<mxfile host="app.diagrams.net" modified="2022-04-18T04:34:23.630Z" agent="5.0 (Windows)" etag="TML62le5dD-ZBN3yyfQs" version="17.4.5" type="github">
  <diagram id="sHsExGFmNeG2ucEGjvr5" name="Page-1">
    <mxGraphModel dx="494" dy="274" grid="1" gridSize="10" guides="1" tooltips="1" connect="1" arrows="1" fold="1" page="1" pageScale="1" pageWidth="827" pageHeight="1169" math="0" shadow="0">
      <root>
        <mxCell id="0" />
        <mxCell id="1" parent="0" />
        <mxCell id="ObTCVD12jKMNM9ZodK6L-1" value="" style="rounded=0;whiteSpace=wrap;html=1;" vertex="1" parent="1">
          <mxGeometry x="60" y="40" width="120" height="60" as="geometry" />
        </mxCell>
      </root>
    </mxGraphModel>
  </diagram>
</mxfile>
